<?xml version="1.0" standalone="no"?>
<!DOCTYPE svg PUBLIC "-//W3C//DTD SVG 20010904//EN"
 "http://www.w3.org/TR/2001/REC-SVG-20010904/DTD/svg10.dtd">
<svg version="1.0" xmlns="http://www.w3.org/2000/svg"
 width="300.000000pt" height="294.000000pt" viewBox="0 0 300.000000 294.000000"
 preserveAspectRatio="xMidYMid meet">
<metadata>
Created by potrace 1.10, written by Peter Selinger 2001-2011
</metadata>
<g transform="translate(0.000000,294.000000) scale(0.100000,-0.100000)"
fill="#000000" stroke="none">
<path d="M1910 2533 c-298 -56 -563 -239 -720 -498 -49 -81 -100 -213 -100
-258 0 -25 -1 -25 -117 -32 -213 -14 -391 36 -503 141 -130 122 -144 297 -32
416 84 90 201 132 362 132 116 0 180 -14 287 -65 93 -44 93 -44 93 -24 0 18
-125 79 -210 101 -86 23 -253 23 -339 1 -127 -34 -225 -106 -271 -202 -35 -73
-34 -180 1 -256 51 -109 161 -200 288 -240 84 -26 242 -40 348 -31 l81 8 11
-75 c7 -46 21 -92 37 -118 75 -129 256 -160 427 -75 5 2 -19 -33 -52 -77 -33
-45 -68 -94 -77 -109 -14 -25 -25 -29 -98 -39 -154 -21 -416 -124 -424 -166
-3 -15 10 -11 78 23 98 50 228 94 333 113 l78 15 -14 -22 c-8 -11 -51 -79 -97
-151 -235 -369 -342 -497 -475 -567 -171 -89 -335 -64 -335 52 0 92 98 255
216 358 51 45 67 72 43 72 -21 0 -166 -154 -211 -225 -133 -205 -96 -339 93
-337 106 1 221 41 326 113 71 49 217 193 290 287 64 81 195 283 243 375 24 45
27 47 67 47 111 0 233 -50 300 -123 62 -67 87 -125 96 -225 5 -48 12 -61 28
-45 16 16 -6 127 -39 197 -58 121 -170 197 -323 218 l-85 12 64 110 c169 291
271 396 403 413 52 7 45 29 -10 26 -74 -3 -155 -56 -281 -184 -136 -139 -188
-170 -295 -177 -157 -10 -245 57 -245 186 0 27 3 63 6 80 6 27 11 31 67 42
153 30 367 119 514 216 124 80 139 92 120 99 -8 4 -49 -17 -97 -50 -149 -102
-404 -212 -553 -240 l-37 -7 31 73 c125 297 387 567 619 640 93 29 231 37 265
15 56 -37 15 -161 -91 -275 -51 -56 -54 -61 -32 -61 18 0 38 16 71 58 102 124
133 231 83 289 -22 26 -30 28 -103 29 -43 1 -89 0 -103 -3z m-628 -454 c-16
-24 -49 -81 -73 -126 -24 -45 -45 -80 -48 -78 -7 8 67 151 105 202 46 62 57
63 16 2z m181 -841 c-4 -7 -47 -78 -96 -158 -48 -80 -97 -154 -109 -165 l-20
-20 12 25 c7 13 41 67 75 120 34 52 73 115 85 140 13 25 30 50 39 57 21 16 24
16 14 1z"/>
<path d="M2127 2205 c-6 -55 -30 -85 -68 -85 -16 0 -97 14 -181 31 -126 26
-178 32 -294 33 -106 1 -145 -2 -157 -13 -27 -22 -20 -29 21 -20 57 13 179 10
255 -6 136 -28 252 -102 334 -210 56 -74 81 -130 89 -201 15 -122 25 -33 27
234 1 203 -1 282 -9 282 -6 0 -14 -20 -17 -45z m-19 -207 c2 -70 1 -81 -11
-68 -7 8 -44 47 -81 87 l-68 71 79 -4 78 -3 3 -83z"/>
<path d="M1141 2089 c-140 -76 -234 -156 -313 -267 l-38 -52 55 -1 c30 -1 59
-2 64 -3 5 -1 31 33 59 74 45 68 122 150 177 190 23 17 79 89 73 95 -2 2 -37
-14 -77 -36z m-222 -244 c-20 -33 -39 -46 -39 -26 0 9 46 61 54 61 3 0 -4 -16
-15 -35z"/>
<path d="M731 1641 c-42 -115 -53 -196 -48 -336 3 -74 13 -158 22 -195 39
-146 126 -293 231 -389 l57 -52 28 33 c15 18 28 37 29 41 0 5 -15 27 -34 50
-163 200 -229 573 -147 836 l19 61 -32 0 c-17 0 -47 3 -67 6 l-36 6 -22 -61z
m86 11 c9 -5 8 -24 -4 -77 -20 -86 -22 -315 -4 -400 32 -153 82 -276 153 -375
57 -79 27 -77 -48 3 -122 132 -183 291 -191 502 -4 110 -2 144 16 220 21 85
42 135 59 135 4 0 12 -4 19 -8z"/>
<path d="M1900 1245 c0 -10 11 -15 35 -15 53 0 93 -41 105 -109 6 -29 10 -147
10 -262 l0 -208 -30 -21 c-50 -36 -151 -77 -234 -95 -61 -14 -108 -16 -210
-13 -152 6 -252 33 -362 100 l-65 39 -29 -23 c-16 -13 -29 -26 -29 -29 -1 -11
137 -68 212 -89 103 -28 250 -43 337 -36 41 4 136 21 210 38 212 48 310 41
310 -24 0 -10 4 -18 9 -18 5 0 11 138 13 328 3 288 5 331 20 359 23 42 55 63
95 63 23 0 33 5 33 15 0 13 -31 15 -215 15 -184 0 -215 -2 -215 -15z m263 -31
c14 -5 13 -10 -1 -42 -13 -30 -17 -87 -22 -307 l-5 -270 -34 3 c-45 3 -46 5
-26 36 15 22 16 53 13 263 -3 157 -8 248 -17 267 -6 16 -10 35 -7 43 5 13 71
18 99 7z"/>
</g>
</svg>
