<?xml version="1.0" standalone="no"?>
<!DOCTYPE svg PUBLIC "-//W3C//DTD SVG 20010904//EN"
 "http://www.w3.org/TR/2001/REC-SVG-20010904/DTD/svg10.dtd">
<svg version="1.0" xmlns="http://www.w3.org/2000/svg"
 width="300.000000pt" height="326.000000pt" viewBox="0 0 300.000000 326.000000"
 preserveAspectRatio="xMidYMid meet">
<metadata>
Created by potrace 1.10, written by Peter Selinger 2001-2011
</metadata>
<g transform="translate(0.000000,326.000000) scale(0.100000,-0.100000)"
fill="#000000" stroke="none">
<path d="M884 2986 l0 -34 176 -5 c222 -6 308 -30 398 -111 34 -31 43 -34 117
-38 150 -8 277 -100 350 -252 79 -167 85 -417 14 -624 -24 -69 -24 -70 4 -44
l23 22 43 -44 43 -44 -25 -34 c-62 -82 -117 -239 -117 -332 l0 -49 24 26 c37
40 86 61 144 61 l52 0 0 536 c0 571 4 619 51 711 70 139 192 205 399 216 l105
6 1 33 1 34 -902 0 -901 0 0 -34z m658 -13 c11 -10 18 -11 23 -4 7 13 821 16
829 3 2 -4 -26 -23 -64 -41 -76 -36 -145 -101 -180 -171 -12 -24 -33 -86 -46
-138 -18 -76 -30 -102 -55 -129 -18 -18 -36 -33 -39 -33 -4 0 -19 31 -34 68
-47 116 -132 213 -246 279 -41 24 -43 24 -26 5 27 -31 5 -28 -24 3 -21 22 -32
25 -96 25 -66 0 -77 3 -106 28 -62 53 -96 72 -114 65 -12 -4 -15 -3 -10 5 4 7
1 12 -8 12 -8 0 -18 5 -22 11 -4 8 3 9 23 5 21 -5 34 -2 43 9 7 8 17 15 23 15
5 0 2 -9 -8 -20 -18 -20 -18 -20 14 -4 22 11 43 14 68 9 34 -6 36 -5 22 11
-12 16 -12 17 1 9 8 -4 22 -14 32 -22z m571 -468 c-5 -8 -30 -37 -58 -66 -46
-48 -48 -52 -37 -81 6 -17 8 -37 3 -45 -5 -10 -11 2 -18 38 l-11 53 56 58 c52
55 83 75 65 43z m-39 -142 c11 -88 11 -96 0 -100 -6 -2 -15 4 -19 14 -9 22
-16 114 -9 125 12 19 22 5 28 -39z m36 5 c-1 -35 -3 -40 -11 -25 -10 17 -5 67
6 67 3 0 5 -19 5 -42z m-8 -171 c20 -38 -3 -29 -47 16 -58 61 -62 98 -4 42 22
-22 45 -48 51 -58z m-27 -37 c11 -22 15 -63 15 -168 0 -76 -3 -142 -7 -145 -3
-4 -26 14 -50 41 -34 36 -43 53 -39 72 3 14 13 71 22 128 18 109 31 125 59 72z
m13 -502 l-3 -122 -44 -13 c-24 -7 -53 -15 -64 -19 -18 -6 -19 -3 -13 35 11
68 94 241 117 241 6 0 9 -46 7 -122z"/>
<path d="M1465 2722 c-53 -26 -101 -78 -115 -127 -25 -86 35 -191 115 -202 34
-4 46 -1 73 22 40 33 43 71 7 87 -19 8 -28 8 -40 -2 -19 -16 -20 -59 0 -66 24
-10 17 -24 -11 -24 -36 0 -89 55 -98 103 -22 120 119 191 249 124 133 -68 196
-208 196 -437 0 -185 -53 -417 -136 -593 -15 -32 -25 -60 -22 -63 8 -8 101
152 141 241 64 148 106 328 106 460 0 142 -55 298 -134 383 -90 96 -238 138
-331 94z"/>
<path d="M1576 2578 c4 -13 17 -36 30 -51 31 -37 32 -96 4 -122 -28 -25 -25
-35 10 -35 44 0 90 -22 129 -61 l34 -34 -7 44 c-17 111 -65 198 -139 252 -49
36 -71 38 -61 7z m120 -135 c7 -10 14 -26 14 -36 0 -15 -3 -16 -20 -7 -12 6
-20 21 -20 35 0 29 8 32 26 8z"/>
<path d="M1560 2309 c-43 -9 -70 -41 -70 -83 0 -60 76 -102 100 -56 22 42 -34
82 -68 48 -9 -9 -12 -8 -12 4 0 9 12 26 28 38 57 45 150 -1 193 -96 25 -54 49
-171 50 -242 l1 -57 10 45 c5 25 7 82 5 127 -10 182 -111 298 -237 272z"/>
<path d="M1555 2088 c-46 -25 -59 -74 -29 -116 29 -42 89 -20 82 30 -3 26 -41
37 -64 18 -22 -19 -18 6 6 30 25 25 56 25 97 0 92 -56 105 -224 30 -409 -14
-34 -21 -61 -17 -61 9 0 76 145 89 195 14 51 14 149 1 197 -26 93 -127 154
-195 116z"/>
<path d="M1631 1909 c-13 -10 -29 -19 -37 -19 -12 0 -14 -83 -14 -523 0 -437
-3 -533 -15 -582 -64 -249 -271 -378 -580 -362 -120 6 -190 24 -275 68 -88 46
-137 98 -125 132 3 7 48 33 100 57 156 70 225 164 225 305 0 158 -104 286
-254 315 -253 48 -469 -186 -402 -435 88 -333 451 -533 926 -511 296 13 512
93 725 269 l29 24 -34 18 c-221 112 -314 438 -218 764 12 42 18 76 13 78 -34
11 -76 46 -71 58 3 8 -2 18 -10 23 -13 7 -11 21 15 98 29 88 44 193 32 226 -5
15 -8 15 -30 -3z m-982 -651 c51 -9 121 -44 135 -67 4 -5 -7 -12 -24 -16 -19
-4 -56 -33 -100 -78 l-71 -72 4 -72 c4 -75 11 -90 59 -131 15 -13 37 -37 49
-53 l21 -29 -59 -26 c-105 -46 -132 -89 -97 -155 8 -17 14 -33 11 -35 -7 -7
-127 85 -127 97 0 6 -9 9 -20 6 -17 -4 -18 -2 -9 15 7 13 7 18 1 14 -11 -6
-50 45 -90 116 -28 50 -52 133 -52 183 0 138 103 270 233 300 68 15 72 15 136
3z m164 -104 c20 -4 37 -10 37 -15 0 -14 -39 -20 -61 -9 -19 11 -28 5 -89 -55
l-68 -67 3 -55 c2 -52 5 -57 60 -113 55 -56 60 -59 77 -43 10 9 18 28 18 42 0
19 15 41 51 76 30 29 49 42 44 30 -4 -11 -11 -34 -15 -52 -10 -40 -78 -122
-108 -130 -19 -5 -36 6 -88 58 -56 55 -64 69 -64 99 1 19 -2 48 -6 63 -6 26 1
36 67 103 76 76 79 78 142 68z m31 -60 c22 -22 21 -48 -1 -38 -10 4 -40 10
-67 13 -47 6 -49 7 -32 24 22 21 79 22 100 1z m-19 -59 c14 -13 25 -36 25 -50
0 -53 -71 -93 -111 -62 -45 34 -43 89 3 121 32 22 55 20 83 -9z m-137 -32 c3
-57 20 -90 53 -103 23 -10 29 -19 29 -42 0 -46 -26 -46 -72 0 -36 35 -41 47
-45 93 -2 38 1 57 13 71 10 10 18 18 19 18 0 0 2 -17 3 -37z m1078 -283 c41
-43 71 -67 80 -63 29 11 2 -25 -62 -81 -35 -32 -69 -54 -75 -51 -6 4 -36 -6
-67 -23 -67 -35 -173 -71 -240 -81 -30 -5 -46 -12 -44 -20 1 -8 -3 -10 -10 -5
-24 13 -48 37 -48 47 0 6 12 0 27 -14 19 -18 25 -20 20 -7 -5 13 7 27 48 54
72 47 131 115 166 189 30 64 56 157 60 215 5 58 11 56 46 -19 22 -47 58 -97
99 -141z"/>
<path d="M1958 1813 c-83 -88 -173 -251 -214 -390 -35 -116 -44 -314 -20 -416
32 -138 115 -247 231 -302 142 -69 329 -15 386 110 22 48 24 133 5 179 -52
124 -213 151 -306 50 -22 -24 -40 -53 -40 -64 0 -71 87 -92 120 -29 15 28 3
57 -32 78 l-29 19 32 11 c123 43 232 -55 199 -177 -28 -106 -187 -155 -306
-94 -138 71 -205 223 -203 461 1 147 12 207 22 124 22 -187 229 -291 350 -175
67 64 53 173 -28 212 -46 22 -80 20 -123 -8 -39 -25 -47 -51 -23 -75 17 -18
24 -19 46 -9 29 13 33 43 9 66 -14 15 -12 16 26 16 114 0 124 -159 12 -189
-72 -20 -152 22 -195 103 -32 59 -31 213 2 306 21 61 70 155 107 208 24 33 13
27 -28 -15z m10 -1066 c19 -18 21 -18 30 0 6 10 14 15 18 11 8 -9 -14 -38 -29
-38 -19 0 -57 43 -56 64 0 21 0 21 8 1 5 -11 18 -28 29 -38z"/>
<path d="M2339 1248 c-1 -2 -3 -13 -4 -25 -2 -19 1 -21 16 -12 10 5 16 16 13
24 -5 13 -21 21 -25 13z"/>
<path d="M1840 1153 c0 -5 7 -38 14 -74 24 -112 76 -193 147 -229 41 -22 59
-25 59 -12 0 5 -18 16 -40 25 -77 30 -102 119 -55 190 27 39 27 39 -27 51 -14
3 -40 17 -56 31 -31 26 -42 31 -42 18z"/>
</g>
</svg>
